<svg xmlns="http://www.w3.org/2000/svg" viewBox="0 0 150 166.42"><defs><style>.cls-1{fill:#41312f;}</style></defs><title>Asset 7</title><g id="Layer_2" data-name="Layer 2"><g id="Layer_2-2" data-name="Layer 2"><path class="cls-1" d="M145.49,127.43a29.54,29.54,0,0,1-40.69,9.31c-.09-.05-.18-.14-.28-.19v.38a29.52,29.52,0,0,1-59,0v-.43a1.38,1.38,0,0,1-.33.24,29.5,29.5,0,0,1-31.33-50,32.74,32.74,0,0,1,8.28-3.91A30.24,30.24,0,0,1,14,79.31a29.52,29.52,0,0,1,31.38-50s.09.05.14.1a29.52,29.52,0,0,1,59,.14v.33c.1-.05.19-.14.28-.19a29.54,29.54,0,0,1,31.38,50.05A28.63,28.63,0,0,1,128,83.21a30.27,30.27,0,0,1,8.14,3.53A29.54,29.54,0,0,1,145.49,127.43Z"/></g></g></svg>